<?xml version="1.0" encoding="utf-8"?>
<!-- Generator: Adobe Illustrator 23.1.0, SVG Export Plug-In . SVG Version: 6.00 Build 0)  -->
<svg version="1.1" id="Layer_1" xmlns="http://www.w3.org/2000/svg" xmlns:xlink="http://www.w3.org/1999/xlink" x="0px" y="0px"
	 viewBox="0 0 512 512" style="enable-background:new 0 0 512 512;" xml:space="preserve">
<style type="text/css">
	.st0{fill:#EFEFEF;}
	.st1{fill:#A4AFC1;}
	.st2{fill:#34E9FA;}
	.st3{fill:#44C7C7;}
</style>
<g id="BG">
	<g>
		<path class="st0" d="M389.9,102.6C291.6,104.1,223,64.3,175.7,65C128.3,65.7,29.3,89,33.3,263.7S171.9,462,224.1,461.2
			C468.2,457.6,564.1,100,389.9,102.6z"/>
	</g>
</g>
<g id="Color">
	<g>
		<g>
			<path class="st1" d="M94,81.7h14.2v28.4H94V81.7z"/>
		</g>
		<g>
			<path class="st1" d="M44.2,127.9h28.4v14.2H44.2V127.9z"/>
		</g>
	</g>
	<g>
		<path class="st1" d="M394.7,432.3c-11.8,0-21.3-9.6-21.3-21.3s9.6-21.3,21.3-21.3c11.8,0,21.3,9.6,21.3,21.3
			S406.4,432.3,394.7,432.3z M394.7,403.9c-3.9,0-7.1,3.2-7.1,7.1s3.2,7.1,7.1,7.1s7.1-3.2,7.1-7.1S398.6,403.9,394.7,403.9z"/>
	</g>
	<g>
		<path class="st2" d="M416,229.3v78.2c0,15.7-12.7,28.4-28.4,28.4H124.4c-15.7,0-28.4-12.7-28.4-28.4v-78.2
			c0-15.7,12.7-28.4,28.4-28.4h263.1C403.3,200.9,416,213.6,416,229.3z"/>
	</g>
	<g>
		<path class="st3" d="M128,307.6v-78.2c0-15.7,12.7-28.4,28.4-28.4h-32c-15.7,0-28.4,12.7-28.4,28.4v78.2
			c0,15.7,12.7,28.4,28.4,28.4h32C140.7,336,128,323.3,128,307.6z"/>
	</g>
</g>
<path d="M401.8,346.7H110.2c-13.7,0-24.9-11.2-24.9-24.9V215.1c0-13.7,11.2-24.9,24.9-24.9h291.6c13.7,0,24.9,11.2,24.9,24.9v106.7
	C426.7,335.5,415.5,346.7,401.8,346.7z M110.2,211.6c-2,0-3.6,1.6-3.6,3.6v106.7c0,2,1.6,3.6,3.6,3.6h291.6c2,0,3.6-1.6,3.6-3.6
	V215.1c0-2-1.6-3.6-3.6-3.6H110.2V211.6z"/>
</svg>
