<?xml version="1.0" encoding="UTF-8" standalone="no"?>
<svg
   xmlns:dc="http://purl.org/dc/elements/1.1/"
   xmlns:cc="http://creativecommons.org/ns#"
   xmlns:rdf="http://www.w3.org/1999/02/22-rdf-syntax-ns#"
   xmlns:svg="http://www.w3.org/2000/svg"
   xmlns="http://www.w3.org/2000/svg"
   xmlns:sodipodi="http://sodipodi.sourceforge.net/DTD/sodipodi-0.dtd"
   xmlns:inkscape="http://www.inkscape.org/namespaces/inkscape"
   version="1.1"
   id="Layer_1"
   x="0px"
   y="0px"
   viewBox="0 0 22 22"
   xml:space="preserve"
   sodipodi:docname="column-after-edit.svg"
   width="22"
   height="22"
   inkscape:version="1.0.1 (3bc2e813f5, 2020-09-07)"><metadata
   id="metadata39"><rdf:RDF><cc:Work
       rdf:about=""><dc:format>image/svg+xml</dc:format><dc:type
         rdf:resource="http://purl.org/dc/dcmitype/StillImage" /><dc:title></dc:title></cc:Work></rdf:RDF></metadata><defs
   id="defs37" /><sodipodi:namedview
   pagecolor="#ffffff"
   bordercolor="#666666"
   borderopacity="1"
   objecttolerance="10"
   gridtolerance="10"
   guidetolerance="10"
   inkscape:pageopacity="0"
   inkscape:pageshadow="2"
   inkscape:window-width="1920"
   inkscape:window-height="986"
   id="namedview35"
   showgrid="false"
   fit-margin-top="0"
   fit-margin-left="0"
   fit-margin-right="0"
   fit-margin-bottom="0"
   lock-margins="false"
   inkscape:zoom="17.677669"
   inkscape:cx="8.9502163"
   inkscape:cy="7.2060902"
   inkscape:window-x="-11"
   inkscape:window-y="-11"
   inkscape:window-maximized="1"
   inkscape:current-layer="Layer_1" />
<style
   type="text/css"
   id="style2">
	.st0{fill:#EFEFEF;}
	.st1{fill:#A4AFC1;}
	.st2{fill:#34E9FA;}
	.st3{fill:#44C7C7;}
</style>
<g
   id="BG"
   transform="translate(-245,-263.44993)">
	
</g>
<g
   id="Color"
   transform="matrix(0.64465657,0,0,0.45694959,-154.03208,-114.40975)">
	
	
	<g
   id="g25"
   transform="matrix(0.06444052,0,0,0.06389864,239.50322,257.29641)">
		<path
   class="st2"
   d="m 416,229.3 v 78.2 c 0,15.7 -12.7,28.4 -28.4,28.4 H 124.4 C 108.7,335.9 96,323.2 96,307.5 v -78.2 c 0,-15.7 12.7,-28.4 28.4,-28.4 h 263.1 c 15.8,0 28.5,12.7 28.5,28.4 z"
   id="path23" />
	</g>
	<g
   id="g29"
   transform="matrix(0.06444052,0,0,0.06389864,239.50322,257.29641)">
		<path
   class="st3"
   d="m 128,307.6 v -78.2 c 0,-15.7 12.7,-28.4 28.4,-28.4 h -32 C 108.7,201 96,213.7 96,229.4 v 78.2 c 0,15.7 12.7,28.4 28.4,28.4 h 32 C 140.7,336 128,323.3 128,307.6 Z"
   id="path27" />
	</g>
</g>
<path
   d="M 17.056826,13.28485 H 4.9431743 c -0.5691222,0 -1.0343966,-0.327021 -1.0343966,-0.727039 V 9.4423288 c 0,-0.4000182 0.4652744,-0.7270388 1.0343966,-0.7270388 H 17.056826 c 0.569122,0 1.034396,0.3270206 1.034396,0.7270388 v 3.1154822 c 0,0.400018 -0.465274,0.727039 -1.034396,0.727039 z M 4.9431743,9.3401366 c -0.083083,0 -0.1495539,0.046719 -0.1495539,0.1051121 v 3.1154823 c 0,0.05839 0.066471,0.105112 0.1495539,0.105112 H 17.056826 c 0.08308,0 0.149553,-0.04672 0.149553,-0.105112 V 9.4423288 c 0,-0.058394 -0.06647,-0.1051121 -0.149553,-0.1051121 H 4.9431743 Z"
   id="path32"
   style="stroke-width:0.0348276" />
</svg>
