<?xml version="1.0" encoding="utf-8"?>
<!-- Generator: Adobe Illustrator 23.1.0, SVG Export Plug-In . SVG Version: 6.00 Build 0)  -->
<svg version="1.1" id="_x31__x2C_5" xmlns="http://www.w3.org/2000/svg" xmlns:xlink="http://www.w3.org/1999/xlink" x="0px"
	 y="0px" viewBox="0 0 512 512" style="enable-background:new 0 0 512 512;" xml:space="preserve">
<style type="text/css">
	.st0{fill:#EFEFEF;}
	.st1{fill:#A4AFC1;}
	.st2{fill:#1795E3;}
	.st3{fill:#F3F3F1;}
	.st4{fill:#34E9FA;}
	.st5{fill:#D5DBE1;}
	.st6{fill:#3B8FBF;}
	.st7{fill:#44C7C7;}
</style>
<path class="st0" d="M452.7,392.9c0-98.4,51-165.9,51-213.3s-27.2-147-245.3-147S8.3,166.5,8.3,218.6
	C8.3,462.8,452.7,567.1,452.7,392.9z"/>
<g>
	<path class="st1" d="M382.6,37.2l10.1-10.1l20.1,20.1l-10.1,10.1L382.6,37.2z"/>
	<path class="st1" d="M440.4,95L450.5,85l20.1,20.1l-10.1,10.1L440.4,95z"/>
	<path class="st1" d="M437.9,47.3L458,27.2l10.1,10.1L448,57.3L437.9,47.3z"/>
</g>
<path class="st2" d="M416,384c0,17.7-71.6,32-160,32S96,401.7,96,384v-85.3h320V384z"/>
<path class="st3" d="M416,298.7c0,17.7-71.6,32-160,32s-160-14.3-160-32v-85.3h320V298.7z"/>
<path class="st4" d="M416,213.3c0,17.7-71.6,32-160,32S96,231,96,213.3V128h320V213.3z"/>
<ellipse class="st3" cx="256" cy="128" rx="160" ry="32"/>
<path class="st5" d="M128,298.7v-85.3H96v85.3c0,17.7,71.6,32,160,32c5.4,0,10.7-0.1,16-0.2C191.1,328.9,128,315.3,128,298.7z"/>
<path class="st5" d="M128,128c0-16.6,63.1-30.2,144-31.8c-5.3-0.1-10.6-0.2-16-0.2c-88.4,0-160,14.3-160,32s71.6,32,160,32
	c5.4,0,10.7-0.1,16-0.2C191.1,158.2,128,144.6,128,128z"/>
<path class="st6" d="M128,384v-76.5l-32-8.8V384c0,17.7,71.6,32,160,32c5.4,0,10.7-0.1,16-0.2C191.1,414.2,128,400.6,128,384z"/>
<path class="st7" d="M128,213.3v-64L96,128v85.3c0,17.7,71.6,32,160,32c5.4,0,10.7-0.1,16-0.2C191.1,243.6,128,229.9,128,213.3z"/>
<path d="M256,170.7c-17.5,0-170.7-1.2-170.7-42.7S238.5,85.3,256,85.3s170.7,1.2,170.7,42.7S273.5,170.7,256,170.7z M107.9,128
	c10.4,8.1,60.4,21.3,148.1,21.3s137.7-13.3,148.1-21.3c-10.4-8.1-60.4-21.3-148.1-21.3S118.3,119.9,107.9,128z"/>
<path d="M256,256c-17.5,0-170.7-1.2-170.7-42.7h21.3c0-0.9-0.3-1.5-0.4-1.6c5.1,7.8,55.7,23,149.7,23s144.6-15.2,149.7-23
	c-0.1,0.2-0.4,0.8-0.4,1.6h21.3C426.7,254.8,273.5,256,256,256z"/>
<path d="M256,341.3c-17.5,0-170.7-1.2-170.7-42.7h21.3c0-0.9-0.3-1.5-0.4-1.6c5.1,7.8,55.7,23,149.7,23s144.6-15.2,149.7-23
	c-0.1,0.2-0.4,0.8-0.4,1.6h21.3C426.7,340.1,273.5,341.3,256,341.3z"/>
<path d="M256,426.7c-17.5,0-170.7-1.2-170.7-42.7V128h21.3v254.8c6.8,7.9,57.3,22.5,149.3,22.5s142.5-14.6,149.3-22.5V128
	c0-5.9,4.8-10.7,10.7-10.7s10.7,4.8,10.7,10.7v256C426.7,425.5,273.5,426.7,256,426.7z"/>
<circle cx="156.4" cy="284.4" r="14.2"/>
<circle cx="156.4" cy="199.1" r="14.2"/>
<circle cx="156.4" cy="369.8" r="14.2"/>
</svg>
