<svg enable-background="new 0 0 36 36" height="512" viewBox="0 0 36 36" width="512" xmlns="http://www.w3.org/2000/svg"><g id="BG"><g><path d="m27.417 4.414c-6.915.129-11.732-3.365-15.064-3.302-3.333.062-10.296 2.109-10.009 17.44s9.744 17.404 13.41 17.336c17.163-.321 23.911-31.703 11.663-31.474z" fill="#efefef"/></g></g><g id="Color"><g><g><path d="m6.5 3h1v2h-1z" fill="#a4afc1"/></g><g><path d="m3 6.25h2v1h-2z" fill="#a4afc1"/></g></g><g><path d="m31 19.5c-.827 0-1.5-.673-1.5-1.5s.673-1.5 1.5-1.5 1.5.673 1.5 1.5-.673 1.5-1.5 1.5zm0-2c-.276 0-.5.225-.5.5s.224.5.5.5.5-.225.5-.5-.224-.5-.5-.5z" fill="#a4afc1"/></g><g><path d="m29.25 8.75v5.5c0 1.105-.895 2-2 2h-18.5c-1.105 0-2-.895-2-2v-5.5c0-1.105.895-2 2-2h18.5c1.105 0 2 .895 2 2z" fill="#f3f3f1"/></g><g><path d="m29.25 21.75v5.5c0 1.105-.895 2-2 2h-18.5c-1.105 0-2-.895-2-2v-5.5c0-1.105.895-2 2-2h18.5c1.105 0 2 .895 2 2z" fill="#2fdf84"/></g><g><path d="m9 14.25v-5.5c0-1.105.895-2 2-2h-2.25c-1.105 0-2 .895-2 2v5.5c0 1.105.895 2 2 2h2.25c-1.105 0-2-.895-2-2z" fill="#d5dbe1"/></g><g><path d="m9 27.25v-5.5c0-1.105.895-2 2-2h-2.25c-1.105 0-2 .895-2 2v5.5c0 1.105.895 2 2 2h2.25c-1.105 0-2-.895-2-2z" fill="#00b871"/></g></g><g id="Layer_2"><g><path d="m28.25 17h-20.5c-.965 0-1.75-.785-1.75-1.75v-7.5c0-.965.785-1.75 1.75-1.75h20.5c.965 0 1.75.785 1.75 1.75v7.5c0 .965-.785 1.75-1.75 1.75zm-20.5-9.5c-.138 0-.25.112-.25.25v7.5c0 .138.112.25.25.25h20.5c.138 0 .25-.112.25-.25v-7.5c0-.138-.112-.25-.25-.25z"/></g><g><path d="m28.25 30h-20.5c-.965 0-1.75-.785-1.75-1.75v-7.5c0-.965.785-1.75 1.75-1.75h20.5c.965 0 1.75.785 1.75 1.75v7.5c0 .965-.785 1.75-1.75 1.75zm-20.5-9.5c-.138 0-.25.112-.25.25v7.5c0 .138.112.25.25.25h20.5c.138 0 .25-.112.25-.25v-7.5c0-.138-.112-.25-.25-.25z"/></g></g></svg>