<svg enable-background="new 0 0 36 36" height="512" viewBox="0 0 36 36" width="512" xmlns="http://www.w3.org/2000/svg"><g id="BG"><g><path d="m27.417 3.914c-6.915.129-11.732-3.365-15.064-3.302s-10.296 2.109-10.009 17.44 9.744 17.404 13.41 17.336c17.163-.321 23.911-31.703 11.663-31.474z" fill="#efefef"/></g></g><g id="Color"><g><g><path d="m31.621 31.033h1v2h-1z" fill="#a4afc1" transform="matrix(.707 -.707 .707 .707 -13.243 32.103)"/></g><g><path d="m26.879 31.533h2v1h-2z" fill="#a4afc1" transform="matrix(.707 -.707 .707 .707 -14.485 29.096)"/></g><g><path d="m30.945 27.467h2v1h-2z" fill="#a4afc1" transform="matrix(.707 -.707 .707 .707 -10.419 30.78)"/></g></g><g><path d="m5 24.083c-.827 0-1.5-.673-1.5-1.5s.673-1.5 1.5-1.5 1.5.673 1.5 1.5-.673 1.5-1.5 1.5zm0-2c-.276 0-.5.225-.5.5s.224.5.5.5.5-.225.5-.5-.224-.5-.5-.5z" fill="#a4afc1"/></g><g><path d="m28.25 11.25h-12.5c-.552 0-1-.448-1-1v-2.5c0-.552.448-1 1-1h12.5c.552 0 1 .448 1 1v2.5c0 .552-.448 1-1 1z" fill="#f3f3f1"/></g><g><path d="m28.25 20.25h-12.5c-.552 0-1-.448-1-1v-2.5c0-.552.448-1 1-1h12.5c.552 0 1 .448 1 1v2.5c0 .552-.448 1-1 1z" fill="#f3f3f1"/></g><g><path d="m28.25 29.25h-12.5c-.552 0-1-.448-1-1v-2.5c0-.552.448-1 1-1h12.5c.552 0 1 .448 1 1v2.5c0 .552-.448 1-1 1z" fill="#f3f3f1"/></g><g><path d="m17 10.25v-2.5c0-.552.448-1 1-1h-2.25c-.552 0-1 .448-1 1v2.5c0 .552.448 1 1 1h2.25c-.552 0-1-.448-1-1z" fill="#d5dbe1"/></g><g><path d="m17 19.25v-2.5c0-.552.448-1 1-1h-2.25c-.552 0-1 .448-1 1v2.5c0 .552.448 1 1 1h2.25c-.552 0-1-.448-1-1z" fill="#d5dbe1"/></g><g><path d="m17 28.25v-2.5c0-.552.448-1 1-1h-2.25c-.552 0-1 .448-1 1v2.5c0 .552.448 1 1 1h2.25c-.552 0-1-.448-1-1z" fill="#d5dbe1"/></g><g><path d="m10.25 11.25h-2.5c-.552 0-1-.448-1-1v-2.5c0-.552.448-1 1-1h2.5c.552 0 1 .448 1 1v2.5c0 .552-.448 1-1 1z" fill="#2fdf84"/></g><g><path d="m9 10.25v-2.5c0-.552.448-1 1-1h-2.25c-.552 0-1 .448-1 1v2.5c0 .552.448 1 1 1h2.25c-.552 0-1-.448-1-1z" fill="#00b871"/></g><g><path d="m10.25 20.097h-2.5c-.552 0-1-.448-1-1v-2.5c0-.552.448-1 1-1h2.5c.552 0 1 .448 1 1v2.5c0 .553-.448 1-1 1z" fill="#2fdf84"/></g><g><path d="m9 19.097v-2.5c0-.552.448-1 1-1h-2.25c-.552 0-1 .448-1 1v2.5c0 .552.448 1 1 1h2.25c-.552 0-1-.447-1-1z" fill="#00b871"/></g><g><path d="m10.25 28.945h-2.5c-.552 0-1-.448-1-1v-2.5c0-.552.448-1 1-1h2.5c.552 0 1 .448 1 1v2.5c0 .552-.448 1-1 1z" fill="#2fdf84"/></g><g><path d="m9 27.945v-2.5c0-.552.448-1 1-1h-2.25c-.552 0-1 .448-1 1v2.5c0 .552.448 1 1 1h2.25c-.552 0-1-.448-1-1z" fill="#00b871"/></g></g><g id="Layer_2"><g><path d="m10.25 12h-2.5c-.965 0-1.75-.785-1.75-1.75v-2.5c0-.965.785-1.75 1.75-1.75h2.5c.965 0 1.75.785 1.75 1.75v2.5c0 .965-.785 1.75-1.75 1.75zm-2.5-4.5c-.138 0-.25.112-.25.25v2.5c0 .138.112.25.25.25h2.5c.138 0 .25-.112.25-.25v-2.5c0-.138-.112-.25-.25-.25z"/></g><g><path d="m28.25 12h-12.5c-.965 0-1.75-.785-1.75-1.75v-2.5c0-.965.785-1.75 1.75-1.75h12.5c.965 0 1.75.785 1.75 1.75v2.5c0 .965-.785 1.75-1.75 1.75zm-12.5-4.5c-.138 0-.25.112-.25.25v2.5c0 .138.112.25.25.25h12.5c.138 0 .25-.112.25-.25v-2.5c0-.138-.112-.25-.25-.25z"/></g><g><path d="m10.25 21h-2.5c-.965 0-1.75-.785-1.75-1.75v-2.5c0-.965.785-1.75 1.75-1.75h2.5c.965 0 1.75.785 1.75 1.75v2.5c0 .965-.785 1.75-1.75 1.75zm-2.5-4.5c-.138 0-.25.112-.25.25v2.5c0 .138.112.25.25.25h2.5c.138 0 .25-.112.25-.25v-2.5c0-.138-.112-.25-.25-.25z"/></g><g><path d="m28.25 21h-12.5c-.965 0-1.75-.785-1.75-1.75v-2.5c0-.965.785-1.75 1.75-1.75h12.5c.965 0 1.75.785 1.75 1.75v2.5c0 .965-.785 1.75-1.75 1.75zm-12.5-4.5c-.138 0-.25.112-.25.25v2.5c0 .138.112.25.25.25h12.5c.138 0 .25-.112.25-.25v-2.5c0-.138-.112-.25-.25-.25z"/></g><g><path d="m10.25 30h-2.5c-.965 0-1.75-.785-1.75-1.75v-2.5c0-.965.785-1.75 1.75-1.75h2.5c.965 0 1.75.785 1.75 1.75v2.5c0 .965-.785 1.75-1.75 1.75zm-2.5-4.5c-.138 0-.25.112-.25.25v2.5c0 .138.112.25.25.25h2.5c.138 0 .25-.112.25-.25v-2.5c0-.138-.112-.25-.25-.25z"/></g><g><path d="m28.25 30h-12.5c-.965 0-1.75-.785-1.75-1.75v-2.5c0-.965.785-1.75 1.75-1.75h12.5c.965 0 1.75.785 1.75 1.75v2.5c0 .965-.785 1.75-1.75 1.75zm-12.5-4.5c-.138 0-.25.112-.25.25v2.5c0 .138.112.25.25.25h12.5c.138 0 .25-.112.25-.25v-2.5c0-.138-.112-.25-.25-.25z"/></g></g></svg>