<?xml version="1.0" encoding="utf-8"?>
<!-- Generator: Adobe Illustrator 23.1.0, SVG Export Plug-In . SVG Version: 6.00 Build 0)  -->
<svg version="1.1" id="_x31__x2C_5" xmlns="http://www.w3.org/2000/svg" xmlns:xlink="http://www.w3.org/1999/xlink" x="0px"
	 y="0px" viewBox="0 0 512 512" style="enable-background:new 0 0 512 512;" xml:space="preserve">
<style type="text/css">
	.st0{fill:#EFEFEF;}
	.st1{fill:#A4AFC1;}
	.st2{fill:#F3F3F1;}
	.st3{fill:#34E9FA;}
	.st4{fill:#D5DBE1;}
	.st5{fill:#44C7C7;}
</style>
<path class="st0" d="M119.1,59.3c98.4,0,165.9-51,213.3-51s147,27.2,147,245.3S345.5,503.7,293.4,503.7
	C49.2,503.7-55.1,59.3,119.1,59.3L119.1,59.3z"/>
<g>
	<path class="st1" d="M454.6,95l10.1-10.1l20.1,20.1l-10.1,10.1L454.6,95z"/>
	<path class="st1" d="M396.8,37.2l10.1-10.1L427,47.2l-10.1,10.1L396.8,37.2z"/>
	<path class="st1" d="M454.7,49.8l20.1-20.1l10.1,10.1l-20.1,20.1L454.7,49.8z"/>
</g>
<path class="st2" d="M416,202.7H96v-78.2c0-15.7,12.7-28.4,28.4-28.4h263.1c15.7,0,28.4,12.7,28.4,28.4V202.7z"/>
<path class="st3" d="M96,202.7h320v106.7H96V202.7z"/>
<path class="st2" d="M387.6,416H124.4c-15.7,0-28.4-12.7-28.4-28.4v-78.2h320v78.2C416,403.3,403.3,416,387.6,416z"/>
<path class="st4" d="M156.4,96h-32C108.7,96,96,108.7,96,124.4v78.2h32v-78.2C128,108.7,140.7,96,156.4,96z"/>
<path class="st4" d="M128,387.6v-78.2H96v78.2c0,15.7,12.7,28.4,28.4,28.4h32C140.7,416,128,403.3,128,387.6z"/>
<path class="st5" d="M96,202.7h32v106.7H96V202.7z"/>
<path d="M416,213.3H96c-5.9,0-10.7-4.8-10.7-10.7v-78.2c0-21.6,17.5-39.1,39.1-39.1h263.1c21.6,0,39.1,17.5,39.1,39.1v78.2
	C426.7,208.6,421.9,213.3,416,213.3z M106.7,192h298.7v-67.6c0-9.8-8-17.8-17.8-17.8H124.4c-9.8,0-17.8,8-17.8,17.8V192z"/>
<path d="M416,320H96c-5.9,0-10.7-4.8-10.7-10.7V202.7c0-5.9,4.8-10.7,10.7-10.7h320c5.9,0,10.7,4.8,10.7,10.7v106.7
	C426.7,315.2,421.9,320,416,320z M106.7,298.7h298.7v-85.3H106.7V298.7z"/>
<path d="M387.6,426.7H124.4c-21.6,0-39.1-17.5-39.1-39.1v-78.2c0-5.9,4.8-10.7,10.7-10.7h320c5.9,0,10.7,4.8,10.7,10.7v78.2
	C426.7,409.1,409.1,426.7,387.6,426.7z M106.7,320v67.6c0,9.8,8,17.8,17.8,17.8h263.1c9.8,0,17.8-8,17.8-17.8V320H106.7z"/>
<circle cx="369.8" cy="369.8" r="14.2"/>
<circle cx="312.9" cy="369.8" r="14.2"/>
<circle cx="256" cy="369.8" r="14.2"/>
<circle cx="369.8" cy="256" r="14.2"/>
<circle cx="312.9" cy="256" r="14.2"/>
<circle cx="256" cy="256" r="14.2"/>
<circle cx="369.8" cy="156.4" r="14.2"/>
<circle cx="312.9" cy="156.4" r="14.2"/>
<circle cx="256" cy="156.4" r="14.2"/>
</svg>
