<?xml version="1.0" encoding="UTF-8" standalone="no"?>
<svg
   xmlns:dc="http://purl.org/dc/elements/1.1/"
   xmlns:cc="http://creativecommons.org/ns#"
   xmlns:rdf="http://www.w3.org/1999/02/22-rdf-syntax-ns#"
   xmlns:svg="http://www.w3.org/2000/svg"
   xmlns="http://www.w3.org/2000/svg"
   xmlns:sodipodi="http://sodipodi.sourceforge.net/DTD/sodipodi-0.dtd"
   xmlns:inkscape="http://www.inkscape.org/namespaces/inkscape"
   version="1.1"
   id="Layer_1"
   x="0px"
   y="0px"
   viewBox="0 0 22 19.937902"
   xml:space="preserve"
   sodipodi:docname="table-after-edit.svg"
   width="22"
   height="19.937902"
   inkscape:version="1.0.1 (3bc2e813f5, 2020-09-07)"><metadata
   id="metadata107"><rdf:RDF><cc:Work
       rdf:about=""><dc:format>image/svg+xml</dc:format><dc:type
         rdf:resource="http://purl.org/dc/dcmitype/StillImage" /><dc:title></dc:title></cc:Work></rdf:RDF></metadata><defs
   id="defs105" /><sodipodi:namedview
   pagecolor="#ffffff"
   bordercolor="#666666"
   borderopacity="1"
   objecttolerance="10"
   gridtolerance="10"
   guidetolerance="10"
   inkscape:pageopacity="0"
   inkscape:pageshadow="2"
   inkscape:window-width="1920"
   inkscape:window-height="986"
   id="namedview103"
   showgrid="false"
   fit-margin-top="0"
   fit-margin-left="0"
   fit-margin-right="0"
   fit-margin-bottom="0"
   inkscape:zoom="12.5"
   inkscape:cx="6.4576516"
   inkscape:cy="10.911556"
   inkscape:window-x="-11"
   inkscape:window-y="-11"
   inkscape:window-maximized="1"
   inkscape:current-layer="Color" />
<style
   type="text/css"
   id="style2">
	.st0{fill:#EFEFEF;}
	.st1{fill:#A4AFC1;}
	.st2{fill:#F3F3F1;}
	.st3{fill:#D5DBE1;}
	.st4{fill:#34E9FA;}
	.st5{fill:#44C7C7;}
</style>

<g
   id="Color"
   transform="translate(-245,-246.03105)">
	<g
   id="g21">
		
		
		<g
   id="g19">
			
		</g>
	</g>
	<g
   id="g25">
		
	</g>
	<g
   id="g29"
   transform="matrix(0.06444054,0,0,0.06444054,239.50322,240.53427)">
		<path
   class="st2"
   d="M 401.8,160 H 224 c -7.9,0 -14.2,-6.4 -14.2,-14.2 v -35.6 c 0,-7.9 6.4,-14.2 14.2,-14.2 h 177.8 c 7.9,0 14.2,6.4 14.2,14.2 v 35.6 c 0,7.8 -6.4,14.2 -14.2,14.2 z"
   id="path27" />
	</g>
	<g
   id="g33"
   transform="matrix(0.06444054,0,0,0.06444054,239.50322,239.50322)">
		<path
   class="st2"
   d="M 401.8,288 H 224 c -7.9,0 -14.2,-6.4 -14.2,-14.2 v -35.6 c 0,-7.9 6.4,-14.2 14.2,-14.2 h 177.8 c 7.9,0 14.2,6.4 14.2,14.2 v 35.6 c 0,7.8 -6.4,14.2 -14.2,14.2 z"
   id="path31" />
	</g>
	<g
   id="g37"
   transform="matrix(0.06444054,0,0,0.06444054,239.50322,238.47217)">
		<path
   class="st2"
   d="M 401.8,416 H 224 c -7.9,0 -14.2,-6.4 -14.2,-14.2 v -35.6 c 0,-7.9 6.4,-14.2 14.2,-14.2 h 177.8 c 7.9,0 14.2,6.4 14.2,14.2 v 35.6 c 0,7.8 -6.4,14.2 -14.2,14.2 z"
   id="path35" />
	</g>
	<g
   id="g41"
   transform="matrix(0.06444054,0,0,0.06444054,239.50322,240.53427)">
		<path
   class="st3"
   d="m 241.8,145.8 v -35.6 c 0,-7.9 6.4,-14.2 14.2,-14.2 h -32 c -7.9,0 -14.2,6.4 -14.2,14.2 v 35.6 c 0,7.9 6.4,14.2 14.2,14.2 h 32 c -7.9,0 -14.2,-6.4 -14.2,-14.2 z"
   id="path39" />
	</g>
	<g
   id="g45"
   transform="matrix(0.06444054,0,0,0.06444054,239.50322,239.50322)">
		<path
   class="st3"
   d="m 241.8,273.8 v -35.6 c 0,-7.9 6.4,-14.2 14.2,-14.2 h -32 c -7.9,0 -14.2,6.4 -14.2,14.2 v 35.6 c 0,7.9 6.4,14.2 14.2,14.2 h 32 c -7.9,0 -14.2,-6.4 -14.2,-14.2 z"
   id="path43" />
	</g>
	<g
   id="g49"
   transform="matrix(0.06444054,0,0,0.06444054,239.50322,238.47217)">
		<path
   class="st3"
   d="m 241.8,401.8 v -35.6 c 0,-7.9 6.4,-14.2 14.2,-14.2 h -32 c -7.9,0 -14.2,6.4 -14.2,14.2 v 35.6 c 0,7.9 6.4,14.2 14.2,14.2 h 32 c -7.9,0 -14.2,-6.4 -14.2,-14.2 z"
   id="path47" />
	</g>
	<g
   id="g53"
   transform="matrix(0.06444054,0,0,0.06444054,239.50322,240.53427)">
		<path
   class="st4"
   d="M 145.8,160 H 110.2 C 102.3,160 96,153.6 96,145.8 V 110.2 C 96,102.3 102.4,96 110.2,96 h 35.6 c 7.9,0 14.2,6.4 14.2,14.2 v 35.6 c 0,7.8 -6.4,14.2 -14.2,14.2 z"
   id="path51" />
	</g>
	<g
   id="g57"
   transform="matrix(0.06444054,0,0,0.06444054,239.50322,240.53427)">
		<path
   class="st5"
   d="m 128,145.8 v -35.6 c 0,-7.9 6.4,-14.2 14.2,-14.2 h -32 C 102.3,96 96,102.4 96,110.2 v 35.6 c 0,7.9 6.4,14.2 14.2,14.2 h 32 c -7.8,0 -14.2,-6.4 -14.2,-14.2 z"
   id="path55" />
	</g>
	<g
   id="g61"
   transform="matrix(0.06444054,0,0,0.06444054,239.50322,239.50322)">
		<path
   class="st4"
   d="M 145.8,285.8 H 110.2 C 102.3,285.8 96,279.4 96,271.6 V 236 c 0,-7.9 6.4,-14.2 14.2,-14.2 h 35.6 c 7.9,0 14.2,6.4 14.2,14.2 v 35.6 c 0,7.9 -6.4,14.2 -14.2,14.2 z"
   id="path59" />
	</g>
	<g
   id="g65"
   transform="matrix(0.06444054,0,0,0.06444054,239.50322,239.50322)">
		<path
   class="st5"
   d="M 128,271.6 V 236 c 0,-7.9 6.4,-14.2 14.2,-14.2 h -32 c -7.9,0 -14.2,6.4 -14.2,14.2 v 35.6 c 0,7.9 6.4,14.2 14.2,14.2 h 32 c -7.8,0 -14.2,-6.3 -14.2,-14.2 z"
   id="path63" />
	</g>
	<g
   id="g69"
   transform="matrix(0.06444054,0,0,0.06444054,239.50322,238.47217)">
		<path
   class="st4"
   d="m 145.8,411.7 h -35.6 c -7.9,0 -14.2,-6.4 -14.2,-14.2 v -35.6 c 0,-7.9 6.4,-14.2 14.2,-14.2 h 35.6 c 7.9,0 14.2,6.4 14.2,14.2 v 35.6 c 0,7.8 -6.4,14.2 -14.2,14.2 z"
   id="path67" />
	</g>
	<g
   id="g73"
   transform="matrix(0.06444054,0,0,0.06444054,239.50322,238.47217)">
		<path
   class="st5"
   d="m 128,397.4 v -35.6 c 0,-7.9 6.4,-14.2 14.2,-14.2 h -32 c -7.9,0 -14.2,6.4 -14.2,14.2 v 35.6 c 0,7.9 6.4,14.2 14.2,14.2 h 32 c -7.8,0.1 -14.2,-6.3 -14.2,-14.2 z"
   id="path71" />
	</g>
</g>
<g
   id="g100"
   transform="matrix(0.06444054,0,0,0.06444054,-5.4967781,-6.5278267)">
	<g
   id="g78">
		<path
   d="m 145.8,186.7 h -35.6 c -13.7,0 -24.9,-11.2 -24.9,-24.9 v -35.6 c 0,-13.7 11.2,-24.9 24.9,-24.9 h 35.6 c 13.7,0 24.9,11.2 24.9,24.9 v 35.6 c 0,13.7 -11.2,24.9 -24.9,24.9 z m -35.6,-64 c -2,0 -3.6,1.6 -3.6,3.6 v 35.6 c 0,2 1.6,3.6 3.6,3.6 h 35.6 c 2,0 3.6,-1.6 3.6,-3.6 v -35.6 c 0,-2 -1.6,-3.6 -3.6,-3.6 z"
   id="path76" />
	</g>
	<g
   id="g82"
   transform="translate(0,16)">
		<path
   d="M 401.8,170.7 H 224 c -13.7,0 -24.9,-11.2 -24.9,-24.9 v -35.6 c 0,-13.7 11.2,-24.9 24.9,-24.9 h 177.8 c 13.7,0 24.9,11.2 24.9,24.9 v 35.6 c 0,13.7 -11.2,24.9 -24.9,24.9 z M 224,106.7 c -2,0 -3.6,1.6 -3.6,3.6 v 35.6 c 0,2 1.6,3.6 3.6,3.6 h 177.8 c 2,0 3.6,-1.6 3.6,-3.6 v -35.6 c 0,-2 -1.6,-3.6 -3.6,-3.6 H 224 Z"
   id="path80" />
	</g>
	<g
   id="g86">
		<path
   d="m 145.8,298.7 h -35.6 c -13.7,0 -24.9,-11.2 -24.9,-24.9 v -35.6 c 0,-13.7 11.2,-24.9 24.9,-24.9 h 35.6 c 13.7,0 24.9,11.2 24.9,24.9 v 35.6 c 0,13.7 -11.2,24.9 -24.9,24.9 z m -35.6,-64 c -2,0 -3.6,1.6 -3.6,3.6 v 35.6 c 0,2 1.6,3.6 3.6,3.6 h 35.6 c 2,0 3.6,-1.6 3.6,-3.6 v -35.6 c 0,-2 -1.6,-3.6 -3.6,-3.6 z"
   id="path84" />
	</g>
	<g
   id="g90">
		<path
   d="M 401.8,298.7 H 224 c -13.7,0 -24.9,-11.2 -24.9,-24.9 v -35.6 c 0,-13.7 11.2,-24.9 24.9,-24.9 h 177.8 c 13.7,0 24.9,11.2 24.9,24.9 v 35.6 c 0,13.7 -11.2,24.9 -24.9,24.9 z M 224,234.7 c -2,0 -3.6,1.6 -3.6,3.6 v 35.6 c 0,2 1.6,3.6 3.6,3.6 h 177.8 c 2,0 3.6,-1.6 3.6,-3.6 v -35.6 c 0,-2 -1.6,-3.6 -3.6,-3.6 z"
   id="path88" />
	</g>
	<g
   id="g94"
   transform="translate(0,-16)">
		<path
   d="m 145.8,426.7 h -35.6 c -13.7,0 -24.9,-11.2 -24.9,-24.9 v -35.6 c 0,-13.7 11.2,-24.9 24.9,-24.9 h 35.6 c 13.7,0 24.9,11.2 24.9,24.9 v 35.6 c 0,13.7 -11.2,24.9 -24.9,24.9 z m -35.6,-64 c -2,0 -3.6,1.6 -3.6,3.6 v 35.6 c 0,2 1.6,3.6 3.6,3.6 h 35.6 c 2,0 3.6,-1.6 3.6,-3.6 v -35.6 c 0,-2 -1.6,-3.6 -3.6,-3.6 z"
   id="path92" />
	</g>
	<g
   id="g98"
   transform="translate(0,-16)">
		<path
   d="M 401.8,426.7 H 224 c -13.7,0 -24.9,-11.2 -24.9,-24.9 v -35.6 c 0,-13.7 11.2,-24.9 24.9,-24.9 h 177.8 c 13.7,0 24.9,11.2 24.9,24.9 v 35.6 c 0,13.7 -11.2,24.9 -24.9,24.9 z M 224,362.7 c -2,0 -3.6,1.6 -3.6,3.6 v 35.6 c 0,2 1.6,3.6 3.6,3.6 h 177.8 c 2,0 3.6,-1.6 3.6,-3.6 v -35.6 c 0,-2 -1.6,-3.6 -3.6,-3.6 z"
   id="path96" />
	</g>
</g>
</svg>
