<?xml version="1.0" encoding="utf-8"?>
<!-- Generator: Adobe Illustrator 23.1.0, SVG Export Plug-In . SVG Version: 6.00 Build 0)  -->
<svg version="1.1" id="Layer_1" xmlns="http://www.w3.org/2000/svg" xmlns:xlink="http://www.w3.org/1999/xlink" x="0px" y="0px"
	 viewBox="0 0 512 512" style="enable-background:new 0 0 512 512;" xml:space="preserve">
<style type="text/css">
	.st0{fill:#EFEFEF;}
	.st1{fill:#A4AFC1;}
	.st2{fill:#F3F3F1;}
	.st3{fill:#D5DBE1;}
	.st4{fill:#34E9FA;}
	.st5{fill:#44C7C7;}
</style>
<g id="BG">
	<g>
		<path class="st0" d="M389.9,55.7c-98.3,1.8-166.9-47.9-214.2-47c-47.4,0.9-146.4,30-142.4,248s138.6,247.5,190.7,246.6
			C468.2,498.7,564.1,52.4,389.9,55.7z"/>
	</g>
</g>
<g id="Color">
	<g>
		<g>
			<path class="st1" d="M441.6,450.7l10.1-10.1l20.1,20.1l-10.1,10.1L441.6,450.7z"/>
		</g>
		<g>
			<path class="st1" d="M381.3,460.6l20.1-20.1l10.1,10.1l-20.1,20.1L381.3,460.6z"/>
		</g>
		<g>
			<path class="st1" d="M439.2,402.8l20.1-20.1l10.1,10.1l-20.1,20.1L439.2,402.8z"/>
		</g>
	</g>
	<g>
		<path class="st1" d="M71.1,342.5c-11.8,0-21.3-9.6-21.3-21.3s9.6-21.3,21.3-21.3s21.3,9.6,21.3,21.3S82.9,342.5,71.1,342.5z
			 M71.1,314.1c-3.9,0-7.1,3.2-7.1,7.1s3.2,7.1,7.1,7.1c3.9,0,7.1-3.2,7.1-7.1S75,314.1,71.1,314.1z"/>
	</g>
	<g>
		<path class="st2" d="M401.8,160H224c-7.9,0-14.2-6.4-14.2-14.2v-35.6c0-7.9,6.4-14.2,14.2-14.2h177.8c7.9,0,14.2,6.4,14.2,14.2
			v35.6C416,153.6,409.6,160,401.8,160z"/>
	</g>
	<g>
		<path class="st2" d="M401.8,288H224c-7.9,0-14.2-6.4-14.2-14.2v-35.6c0-7.9,6.4-14.2,14.2-14.2h177.8c7.9,0,14.2,6.4,14.2,14.2
			v35.6C416,281.6,409.6,288,401.8,288z"/>
	</g>
	<g>
		<path class="st2" d="M401.8,416H224c-7.9,0-14.2-6.4-14.2-14.2v-35.6c0-7.9,6.4-14.2,14.2-14.2h177.8c7.9,0,14.2,6.4,14.2,14.2
			v35.6C416,409.6,409.6,416,401.8,416z"/>
	</g>
	<g>
		<path class="st3" d="M241.8,145.8v-35.6c0-7.9,6.4-14.2,14.2-14.2h-32c-7.9,0-14.2,6.4-14.2,14.2v35.6c0,7.9,6.4,14.2,14.2,14.2
			h32C248.1,160,241.8,153.6,241.8,145.8z"/>
	</g>
	<g>
		<path class="st3" d="M241.8,273.8v-35.6c0-7.9,6.4-14.2,14.2-14.2h-32c-7.9,0-14.2,6.4-14.2,14.2v35.6c0,7.9,6.4,14.2,14.2,14.2
			h32C248.1,288,241.8,281.6,241.8,273.8z"/>
	</g>
	<g>
		<path class="st3" d="M241.8,401.8v-35.6c0-7.9,6.4-14.2,14.2-14.2h-32c-7.9,0-14.2,6.4-14.2,14.2v35.6c0,7.9,6.4,14.2,14.2,14.2
			h32C248.1,416,241.8,409.6,241.8,401.8z"/>
	</g>
	<g>
		<path class="st4" d="M145.8,160h-35.6c-7.9,0-14.2-6.4-14.2-14.2v-35.6c0-7.9,6.4-14.2,14.2-14.2h35.6c7.9,0,14.2,6.4,14.2,14.2
			v35.6C160,153.6,153.6,160,145.8,160z"/>
	</g>
	<g>
		<path class="st5" d="M128,145.8v-35.6c0-7.9,6.4-14.2,14.2-14.2h-32c-7.9,0-14.2,6.4-14.2,14.2v35.6c0,7.9,6.4,14.2,14.2,14.2h32
			C134.4,160,128,153.6,128,145.8z"/>
	</g>
	<g>
		<path class="st4" d="M145.8,285.8h-35.6c-7.9,0-14.2-6.4-14.2-14.2V236c0-7.9,6.4-14.2,14.2-14.2h35.6c7.9,0,14.2,6.4,14.2,14.2
			v35.6C160,279.5,153.6,285.8,145.8,285.8z"/>
	</g>
	<g>
		<path class="st5" d="M128,271.6V236c0-7.9,6.4-14.2,14.2-14.2h-32c-7.9,0-14.2,6.4-14.2,14.2v35.6c0,7.9,6.4,14.2,14.2,14.2h32
			C134.4,285.8,128,279.5,128,271.6z"/>
	</g>
	<g>
		<path class="st4" d="M145.8,411.7h-35.6c-7.9,0-14.2-6.4-14.2-14.2v-35.6c0-7.9,6.4-14.2,14.2-14.2h35.6c7.9,0,14.2,6.4,14.2,14.2
			v35.6C160,405.3,153.6,411.7,145.8,411.7z"/>
	</g>
	<g>
		<path class="st5" d="M128,397.4v-35.6c0-7.9,6.4-14.2,14.2-14.2h-32c-7.9,0-14.2,6.4-14.2,14.2v35.6c0,7.9,6.4,14.2,14.2,14.2h32
			C134.4,411.7,128,405.3,128,397.4z"/>
	</g>
</g>
<g>
	<g>
		<path d="M145.8,170.7h-35.6c-13.7,0-24.9-11.2-24.9-24.9v-35.6c0-13.7,11.2-24.9,24.9-24.9h35.6c13.7,0,24.9,11.2,24.9,24.9v35.6
			C170.7,159.5,159.5,170.7,145.8,170.7z M110.2,106.7c-2,0-3.6,1.6-3.6,3.6v35.6c0,2,1.6,3.6,3.6,3.6h35.6c2,0,3.6-1.6,3.6-3.6
			v-35.6c0-2-1.6-3.6-3.6-3.6H110.2z"/>
	</g>
	<g>
		<path d="M401.8,170.7H224c-13.7,0-24.9-11.2-24.9-24.9v-35.6c0-13.7,11.2-24.9,24.9-24.9h177.8c13.7,0,24.9,11.2,24.9,24.9v35.6
			C426.7,159.5,415.5,170.7,401.8,170.7z M224,106.7c-2,0-3.6,1.6-3.6,3.6v35.6c0,2,1.6,3.6,3.6,3.6h177.8c2,0,3.6-1.6,3.6-3.6
			v-35.6c0-2-1.6-3.6-3.6-3.6H224z"/>
	</g>
	<g>
		<path d="M145.8,298.7h-35.6c-13.7,0-24.9-11.2-24.9-24.9v-35.6c0-13.7,11.2-24.9,24.9-24.9h35.6c13.7,0,24.9,11.2,24.9,24.9v35.6
			C170.7,287.5,159.5,298.7,145.8,298.7z M110.2,234.7c-2,0-3.6,1.6-3.6,3.6v35.6c0,2,1.6,3.6,3.6,3.6h35.6c2,0,3.6-1.6,3.6-3.6
			v-35.6c0-2-1.6-3.6-3.6-3.6H110.2z"/>
	</g>
	<g>
		<path d="M401.8,298.7H224c-13.7,0-24.9-11.2-24.9-24.9v-35.6c0-13.7,11.2-24.9,24.9-24.9h177.8c13.7,0,24.9,11.2,24.9,24.9v35.6
			C426.7,287.5,415.5,298.7,401.8,298.7z M224,234.7c-2,0-3.6,1.6-3.6,3.6v35.6c0,2,1.6,3.6,3.6,3.6h177.8c2,0,3.6-1.6,3.6-3.6
			v-35.6c0-2-1.6-3.6-3.6-3.6H224z"/>
	</g>
	<g>
		<path d="M145.8,426.7h-35.6c-13.7,0-24.9-11.2-24.9-24.9v-35.6c0-13.7,11.2-24.9,24.9-24.9h35.6c13.7,0,24.9,11.2,24.9,24.9v35.6
			C170.7,415.5,159.5,426.7,145.8,426.7z M110.2,362.7c-2,0-3.6,1.6-3.6,3.6v35.6c0,2,1.6,3.6,3.6,3.6h35.6c2,0,3.6-1.6,3.6-3.6
			v-35.6c0-2-1.6-3.6-3.6-3.6H110.2z"/>
	</g>
	<g>
		<path d="M401.8,426.7H224c-13.7,0-24.9-11.2-24.9-24.9v-35.6c0-13.7,11.2-24.9,24.9-24.9h177.8c13.7,0,24.9,11.2,24.9,24.9v35.6
			C426.7,415.5,415.5,426.7,401.8,426.7z M224,362.7c-2,0-3.6,1.6-3.6,3.6v35.6c0,2,1.6,3.6,3.6,3.6h177.8c2,0,3.6-1.6,3.6-3.6
			v-35.6c0-2-1.6-3.6-3.6-3.6H224z"/>
	</g>
</g>
</svg>
